<?xml version="1.0" encoding="UTF-8" standalone="no"?>
<!-- Created with Inkscape (http://www.inkscape.org/) -->

<svg>
  <g
     transform="translate(0,-1004.3622)"
     id="sci-peep">
    <path
       d="m 23.751552,14.21118 a 2.9813664,2.9813664 0 1 1 -5.962733,0 2.9813664,2.9813664 0 1 1 5.962733,0 z"
       transform="translate(0,1004.3622)"
       id="path2987"
       style="opacity:0;fill:#000000;fill-opacity:1;fill-rule:nonzero;stroke:#000000;stroke-width:0.125;stroke-miterlimit:4;stroke-opacity:1;stroke-dasharray:none" />
    <g
       transform="translate(-6,2)"
       id="sci-peep-left">
      <path
         d="m 23.751552,14.21118 a 2.9813664,2.9813664 0 1 1 -5.962733,0 2.9813664,2.9813664 0 1 1 5.962733,0 z"
         transform="translate(-0.59627329,1011.12)"
         id="path2989"
         style="fill:none;stroke:#000000;stroke-width:0.125;stroke-miterlimit:4;stroke-opacity:1;stroke-dasharray:none" />
      <path
         d="m 20.173912,1028.831 c -2.7424,0 -5.013558,3.2708 -5.40625,7.5312 l 10.8125,0 c -0.392307,-4.2611 -2.663535,-7.5312 -5.40625,-7.5312 z"
         id="path2991"
         style="fill:none;stroke:#000000;stroke-width:0.125;stroke-miterlimit:4;stroke-opacity:1;stroke-dasharray:none" />
      <path
         d="m 22.956522,1024.3374 1.391304,-2.7827 -1.78882,1.6895 0.695652,-4.2733 -1.391304,3.5776 -0.198758,-4.3726 -0.795031,4.1739 -1.093166,-4.7702 -0.09938,5.2671 -0.795031,-4.3727 0.09938,4.8696"
         id="path3764"
         style="fill:none;stroke:#000000;stroke-width:0.125;stroke-linecap:butt;stroke-linejoin:miter;stroke-miterlimit:4;stroke-opacity:1;stroke-dasharray:none" />
    </g>
    <g id="sci-peep-right">
    <path
       d="m 23.751552,14.21118 a 2.9813664,2.9813664 0 1 1 -5.962733,0 2.9813664,2.9813664 0 1 1 5.962733,0 z"
       transform="translate(5.8260869,1013.0206)"
       id="path3773"
       style="fill:none;stroke:#000000;stroke-width:0.125;stroke-miterlimit:4;stroke-opacity:1;stroke-dasharray:none" />
    <path
       d="m 26.596272,1030.7316 c -2.7424,0 -5.013558,3.2708 -5.40625,7.5312 l 10.8125,0 c -0.392307,-4.2611 -2.663535,-7.5312 -5.40625,-7.5312 z"
       id="path3775"
       style="fill:none;stroke:#000000;stroke-width:0.125;stroke-miterlimit:4;stroke-opacity:1;stroke-dasharray:none" />
    </g>
  </g>
</svg>
