<?xml version="1.0" encoding="UTF-8" standalone="no"?>
<!-- Created with Inkscape (http://www.inkscape.org/) -->

<svg
   xmlns:dc="http://purl.org/dc/elements/1.1/"
   xmlns:cc="http://creativecommons.org/ns#"
   xmlns:rdf="http://www.w3.org/1999/02/22-rdf-syntax-ns#"
   xmlns:svg="http://www.w3.org/2000/svg"
   xmlns="http://www.w3.org/2000/svg"
   xmlns:sodipodi="http://sodipodi.sourceforge.net/DTD/sodipodi-0.dtd"
   xmlns:inkscape="http://www.inkscape.org/namespaces/inkscape"
   width="48"
   height="48"
   id="svg2"
   version="1.1"
   inkscape:version="0.48.5 r10040"
   sodipodi:docname="New document 1">
  <defs
     id="defs4" />
  <sodipodi:namedview
     id="base"
     pagecolor="#ffffff"
     bordercolor="#666666"
     borderopacity="1.0"
     inkscape:pageopacity="0.0"
     inkscape:pageshadow="2"
     inkscape:zoom="10.0625"
     inkscape:cx="6.1118012"
     inkscape:cy="24"
     inkscape:document-units="px"
     inkscape:current-layer="layer1"
     showgrid="false"
     inkscape:window-width="1280"
     inkscape:window-height="690"
     inkscape:window-x="0"
     inkscape:window-y="0"
     inkscape:window-maximized="1" />
  <metadata
     id="metadata7">
    <rdf:RDF>
      <cc:Work
         rdf:about="">
        <dc:format>image/svg+xml</dc:format>
        <dc:type
           rdf:resource="http://purl.org/dc/dcmitype/StillImage" />
        <dc:title></dc:title>
      </cc:Work>
    </rdf:RDF>
  </metadata>
  <g
     inkscape:label="Layer 1"
     inkscape:groupmode="layer"
     id="layer1"
     transform="translate(0,-1004.3622)">
    <path
       transform="translate(0,1004.3622)"
       d="m 23.751552,14.21118 a 2.9813664,2.9813664 0 1 1 -5.962733,0 2.9813664,2.9813664 0 1 1 5.962733,0 z"
       sodipodi:ry="2.9813664"
       sodipodi:rx="2.9813664"
       sodipodi:cy="14.21118"
       sodipodi:cx="20.770185"
       id="path2987"
       style="fill:#000000;fill-opacity:1;fill-rule:nonzero;stroke:#000000;stroke-opacity:1;stroke-width:0.12500000000000000;stroke-miterlimit:4;stroke-dasharray:none;opacity:0"
       sodipodi:type="arc" />
    <g
       id="g3766"
       transform="translate(-6,2)">
      <path
         transform="translate(-0.59627329,1011.12)"
         d="m 23.751552,14.21118 c 0,1.646563 -1.334803,2.981366 -2.981367,2.981366 -1.646563,0 -2.981366,-1.334803 -2.981366,-2.981366 0,-1.646563 1.334803,-2.981367 2.981366,-2.981367 1.646564,0 2.981367,1.334804 2.981367,2.981367 z"
         sodipodi:ry="2.9813664"
         sodipodi:rx="2.9813664"
         sodipodi:cy="14.21118"
         sodipodi:cx="20.770185"
         id="path2989"
         style="fill:none;stroke:#000000;stroke-width:0.125;stroke-miterlimit:4;stroke-opacity:1;stroke-dasharray:none"
         sodipodi:type="arc" />
      <path
         inkscape:connector-curvature="0"
         id="path2991"
         d="m 20.173912,1028.831 c -2.7424,0 -5.013558,3.2708 -5.40625,7.5312 l 10.8125,0 c -0.392307,-4.2611 -2.663535,-7.5312 -5.40625,-7.5312 z"
         style="fill:none;stroke:#000000;stroke-width:0.125;stroke-miterlimit:4;stroke-opacity:1;stroke-dasharray:none" />
      <path
         inkscape:connector-curvature="0"
         id="path3764"
         d="m 22.956522,1024.3374 1.391304,-2.7827 -1.78882,1.6895 0.695652,-4.2733 -1.391304,3.5776 -0.198758,-4.3726 -0.795031,4.1739 -1.093166,-4.7702 -0.09938,5.2671 -0.795031,-4.3727 0.09938,4.8696"
         style="fill:none;stroke:#000000;stroke-width:0.125;stroke-linecap:butt;stroke-linejoin:miter;stroke-miterlimit:4;stroke-opacity:1;stroke-dasharray:none" />
    </g>
    <path
       transform="translate(5.8260869,1013.0206)"
       d="m 23.751552,14.21118 a 2.9813664,2.9813664 0 1 1 -5.962733,0 2.9813664,2.9813664 0 1 1 5.962733,0 z"
       sodipodi:ry="2.9813664"
       sodipodi:rx="2.9813664"
       sodipodi:cy="14.21118"
       sodipodi:cx="20.770185"
       id="path3773"
       style="fill:none;stroke:#000000;stroke-width:0.125;stroke-miterlimit:4;stroke-opacity:1;stroke-dasharray:none"
       sodipodi:type="arc" />
    <path
       inkscape:connector-curvature="0"
       id="path3775"
       d="m 26.596272,1030.7316 c -2.7424,0 -5.013558,3.2708 -5.40625,7.5312 l 10.8125,0 c -0.392307,-4.2611 -2.663535,-7.5312 -5.40625,-7.5312 z"
       style="fill:none;stroke:#000000;stroke-width:0.125;stroke-miterlimit:4;stroke-opacity:1;stroke-dasharray:none" />
  </g>
</svg>
